<svg xmlns="http://www.w3.org/2000/svg" width="82" height="82" viewBox="0 0 82 82" fill="none">
  <path d="M81.5476 31.8954C81.5476 49.2077 67.5184 63.2369 50.1892 63.2369C32.8769 63.2369 18.8477 49.2077 18.8477 31.8954C18.8477 14.5831 32.8769 0.553833 50.2061 0.553833C67.5184 0.553833 81.5476 14.5831 81.5476 31.8954Z" fill="#DBEAFE"/>
  <path d="M29.4077 63.9307L26.3615 66.9769C25.6338 67.7046 24.4323 67.7046 23.7046 66.9769L14.9215 58.1938C14.1938 57.4661 14.1938 56.2646 14.9215 55.5369L17.9677 52.4907C18.6953 51.7631 19.8969 51.7631 20.6246 52.4907L29.4077 61.2738C30.1523 62.0015 30.1523 63.2031 29.4077 63.9307Z" fill="#F43F5E"/>
  <path d="M25.0415 68.3815C24.3476 68.3815 23.6538 68.1107 23.1122 67.5861L14.3292 58.8031C13.263 57.7369 13.263 56.0107 14.3292 54.9446L17.3753 51.8984C18.4076 50.8661 20.2015 50.8661 21.2338 51.8984L30.0168 60.6815C31.083 61.7477 31.083 63.4738 30.0168 64.54L26.9707 67.5861C26.4292 68.1107 25.7353 68.3815 25.0415 68.3815ZM19.3045 52.7784C19.0338 52.7784 18.763 52.88 18.5768 53.0831L15.5307 56.1292C15.1245 56.5354 15.1245 57.1784 15.5307 57.5846L24.3138 66.3846C24.7199 66.7907 25.363 66.7907 25.7692 66.3846L28.8153 63.3384C29.2215 62.9323 29.2215 62.2892 28.8153 61.8831L20.0322 53.1C19.8461 52.8969 19.5753 52.7784 19.3045 52.7784Z" fill="#172554"/>
  <path d="M37.7 33.0461L21.0984 47.6338L5.00458 43.2338C2.65227 42.5907 1.09535 40.34 1.31535 37.92C1.45073 36.5661 2.04304 35.2969 2.99073 34.3323C3.24458 34.0784 3.51535 33.8584 3.80304 33.6554C7.86458 30.8292 16.2923 25.363 19.9138 25.8877C25.3292 26.683 37.7 33.0461 37.7 33.0461Z" fill="#172554"/>
  <path d="M21.3185 48.5646L4.78462 44.0461C2.02615 43.2846 0.215385 40.6784 0.469231 37.8354C0.621538 36.2784 1.29846 34.8231 2.39846 33.7231C2.70308 33.4184 3.02462 33.1477 3.34615 32.9446C7.91538 29.7631 16.1738 24.4831 20.0492 25.0584C25.5154 25.8538 37.5646 32.0308 38.0892 32.2846L39.1892 32.86L21.3185 48.5646ZM19.3892 26.7C16.8 26.7 11.2492 29.5092 4.31077 34.3492C4.05692 34.5184 3.83692 34.7046 3.6 34.9246C2.78769 35.7369 2.28 36.82 2.16154 37.9877C1.97538 40.0015 3.27846 41.8631 5.24154 42.4046L20.8954 46.6861L36.2108 33.2323C33.0631 31.6754 24.0769 27.36 19.8123 26.7338C19.6769 26.7169 19.5415 26.7 19.3892 26.7Z" fill="#172554"/>
  <path d="M48.8692 44.2154L34.2815 60.8169L38.6815 76.9108C39.3246 79.2631 41.5753 80.82 43.9953 80.6C45.3492 80.4646 46.6184 79.8723 47.583 78.9246C47.8369 78.6708 48.0569 78.4 48.26 78.1123C51.0861 74.0508 56.5523 65.6231 56.0276 62.0015C55.2153 56.5862 48.8692 44.2154 48.8692 44.2154Z" fill="#172554"/>
  <path d="M43.5384 81.4462C40.8984 81.4462 38.563 79.6862 37.8522 77.1138L33.3337 60.58L49.0384 42.7092L49.6137 43.8092C49.8676 44.3169 56.0445 56.3662 56.8399 61.8492C57.3984 65.7246 52.1353 73.9831 48.9368 78.5692C48.7337 78.8738 48.4799 79.1954 48.1584 79.5C47.0753 80.5831 45.6199 81.2769 44.063 81.4292C43.8937 81.4462 43.7245 81.4462 43.5384 81.4462ZM35.2122 61.02L39.4937 76.6738C40.0353 78.6369 41.8968 79.94 43.9107 79.7538C45.0784 79.6354 46.1614 79.1277 46.9737 78.3154C47.1937 78.0954 47.3968 77.8585 47.5322 77.6385C52.6599 70.2769 55.503 64.4892 55.1645 62.12C54.5384 57.8554 50.223 48.8692 48.666 45.7215L35.2122 61.02Z" fill="#172554"/>
  <path d="M65.4029 42.7769C54.8598 53.32 44.249 60.1061 33.0967 65.3184C31.1844 66.1984 28.9336 65.7754 27.4444 64.3031L17.6121 54.4707C16.1229 52.9815 15.6998 50.7308 16.5967 48.8184C21.809 37.6492 28.5952 27.0554 39.1383 16.5123C52.7444 2.90614 67.5859 2.22921 74.5075 2.8046C76.9782 3.00768 78.8906 4.93691 79.1106 7.40768C79.6859 14.3292 78.9921 29.1707 65.4029 42.7769Z" fill="white"/>
  <path d="M76.4706 25.8707C79.3306 18.2384 79.4491 11.4523 79.1106 7.40767C78.9075 4.9369 76.9783 3.0246 74.5075 2.8046C70.446 2.46613 63.6768 2.58459 56.0445 5.4446C50.0875 11.4015 70.5137 31.8277 76.4706 25.8707Z" fill="#3B82F6"/>
  <path d="M31.0153 66.6215C29.4922 66.6215 27.9691 66.0292 26.8522 64.8954L17.0199 55.0631C15.2768 53.32 14.803 50.6631 15.8353 48.4631C21.7245 35.8723 28.9337 25.5154 38.546 15.9031C52.186 2.26306 66.9768 1.31537 74.5922 1.95844C77.4522 2.19537 79.7199 4.46306 79.9568 7.32306C80.5999 14.9384 79.6353 29.7292 66.0122 43.3692C56.3999 52.9815 46.0599 60.2077 33.4522 66.08C32.6568 66.4523 31.8276 66.6215 31.0153 66.6215ZM71.0722 3.51537C63.2537 3.51537 51.086 5.74921 39.7307 17.1215C30.2537 26.5984 23.146 36.7861 17.3583 49.1908C16.6307 50.7646 16.9691 52.6431 18.2045 53.8784L28.0368 63.7107C29.2722 64.9461 31.1676 65.3015 32.7245 64.5569C45.1291 58.7692 55.3337 51.6446 64.7937 42.1846C77.943 29.0354 78.8737 14.8031 78.2476 7.49229C78.0783 5.4446 76.4707 3.83691 74.423 3.66767C73.4414 3.56614 72.3076 3.51537 71.0722 3.51537Z" fill="#172554"/>
  <path d="M54.1999 41.1861C49.5799 45.8061 42.8106 46.5338 39.0876 42.8108C35.3645 39.0877 36.0922 32.3354 40.7122 27.6985C45.3322 23.0615 52.1014 22.3508 55.8245 26.0738C59.5476 29.7969 58.8199 36.5661 54.1999 41.1861Z" fill="#3B82F6"/>
  <path d="M42.946 29.9323C44.0968 28.4431 45.7553 27.2415 47.7353 26.7846C48.6999 26.5477 49.7999 26.3615 50.8153 26.7507C51.7968 27.1231 52.7107 27.8507 53.0491 28.8661L52.9307 28.9846C51.9491 28.68 51.1876 28.4938 50.3753 28.3923C49.5968 28.3077 48.8014 28.0707 47.9553 28.1215C46.263 28.24 44.5537 28.9508 43.0814 30.0677L42.946 29.9323Z" fill="white"/>
  <path d="M9.13378 65.7415L3.58301 71.2923L9.13378 65.7415Z" fill="white"/>
  <path d="M3.58297 72.1385C3.36297 72.1385 3.14297 72.0538 2.99066 71.8846C2.6522 71.5461 2.6522 71.0215 2.99066 70.6831L8.54143 65.1323C8.87989 64.7938 9.40451 64.7938 9.74297 65.1323C10.0814 65.4708 10.0814 65.9954 9.74297 66.3338L4.1922 71.8846C4.02297 72.0538 3.80297 72.1385 3.58297 72.1385Z" fill="#172554"/>
  <path d="M17.4599 74.0677L11.926 79.6185L17.4599 74.0677Z" fill="white"/>
  <path d="M11.926 80.4646C11.706 80.4646 11.486 80.38 11.3337 80.2108C10.9952 79.8723 10.9952 79.3477 11.3337 79.0092L16.8844 73.4585C17.2229 73.12 17.7475 73.12 18.086 73.4585C18.4244 73.7969 18.4244 74.3215 18.086 74.66L12.5352 80.2108C12.3491 80.38 12.1291 80.4646 11.926 80.4646Z" fill="#172554"/>
  <path d="M17.4261 65.7754L3.78613 79.4154L17.4261 65.7754Z" fill="white"/>
  <path d="M3.7861 80.2615C3.5661 80.2615 3.3461 80.1769 3.19379 80.0077C2.85533 79.6692 2.85533 79.1446 3.19379 78.8061L16.8338 65.1661C17.1722 64.8277 17.6969 64.8277 18.0353 65.1661C18.3738 65.5046 18.3738 66.0292 18.0353 66.3677L4.39533 80.0077C4.22609 80.1769 4.0061 80.2615 3.7861 80.2615Z" fill="#172554"/>
  <path d="M33.2152 53.3031L24.8383 61.68L20.2183 57.06L28.5952 48.6831C29.8644 47.4138 31.929 47.3969 33.2152 48.6831C34.4844 49.9692 34.4675 52.0508 33.2152 53.3031Z" fill="#172554"/>
  <path d="M24.8215 62.8815L19.0168 57.0769L28.003 48.1077C28.7815 47.3292 29.8476 46.8554 30.9138 46.9061C32.0138 46.9061 33.0461 47.3292 33.8245 48.1077C35.4322 49.7154 35.4322 52.3215 33.8245 53.9123L24.8215 62.8815ZM21.4199 57.0769L24.8384 60.4954L32.623 52.7108C33.5707 51.7631 33.5707 50.24 32.623 49.2923C32.1661 48.8354 31.5568 48.5815 30.9138 48.5815C30.2707 48.5815 29.6615 48.8354 29.2045 49.2923L21.4199 57.0769Z" fill="#172554"/>
</svg>