<svg xmlns="http://www.w3.org/2000/svg" width="20" height="20" viewBox="0 0 20 20" fill="none">
<g clip-path="url(#clip0_1_32969)">
<path fill-rule="evenodd" clip-rule="evenodd" d="M2.49818 1.25L2.5 1.25H15L15.0018 1.25C15.6638 1.25192 16.2981 1.51574 16.7662 1.98383C17.2343 2.45191 17.4981 3.08622 17.5 3.74819L17.5 3.75V4.375H17.5785C18.9159 4.375 20 5.45914 20 6.79648V15.7323C20 15.7368 20 15.7412 20 15.7457V16.3285C20 17.6659 18.9159 18.75 17.5785 18.75H5.54648C4.20914 18.75 3.125 17.6659 3.125 16.3285V16.25H2.5L2.49818 16.25C1.83622 16.2481 1.20191 15.9843 0.733827 15.5162C0.265743 15.0481 0.00192497 14.4138 2.64496e-06 13.7518L0 13.75V3.75L2.64496e-06 3.74819C0.00192497 3.08622 0.265743 2.45191 0.733827 1.98383C1.20191 1.51574 1.83622 1.25192 2.49818 1.25ZM18.75 14.4104V6.79648C18.75 6.14949 18.2255 5.625 17.5785 5.625H5.54648C4.89949 5.625 4.375 6.14949 4.375 6.79648V13.7573L7.89978 10.6474L7.90022 10.647C8.24858 10.3402 8.70035 10.177 9.16434 10.1903C9.62834 10.2036 10.07 10.3924 10.4002 10.7187L10.4009 10.7194L13.6694 13.9594L14.5527 13.0826L14.5541 13.0812C14.8773 12.7624 15.3071 12.5747 15.7606 12.5543C16.214 12.5338 16.659 12.6821 17.0095 12.9704L17.0109 12.9716L18.75 14.4104ZM12.7823 14.8401L9.52167 11.6079L9.52145 11.6077C9.41642 11.504 9.27601 11.444 9.1285 11.4398C8.98095 11.4356 8.83728 11.4874 8.72648 11.585L8.72634 11.5851L4.375 15.4243V16.3285C4.375 16.9755 4.89949 17.5 5.54648 17.5H10.103L12.7823 14.8401ZM11.8772 17.5L15.4319 13.9712L15.4324 13.9706C15.5355 13.8692 15.6724 13.8095 15.8169 13.803C15.9614 13.7965 16.1031 13.8436 16.2149 13.9353L16.2155 13.9358L18.75 16.0327V16.3285C18.75 16.9755 18.2255 17.5 17.5785 17.5H11.8772ZM16.25 3.75107V4.375H5.54648C4.20914 4.375 3.125 5.45914 3.125 6.79648V15H2.50107C2.16963 14.9988 1.85209 14.8667 1.61771 14.6323C1.38335 14.3979 1.25118 14.0804 1.25 13.749V3.751C1.25118 3.41959 1.38335 3.10207 1.61771 2.86771C1.85207 2.63335 2.16959 2.50118 2.501 2.5H14.999C15.3304 2.50118 15.6479 2.63335 15.8823 2.86771C16.1167 3.10209 16.2488 3.41963 16.25 3.75107ZM13.9902 8.57968C13.9902 8.27001 14.2442 8.01132 14.5671 8.01132C14.89 8.01132 15.1441 8.27001 15.1441 8.57968C15.1441 8.88936 14.89 9.14804 14.5671 9.14804C14.2442 9.14804 13.9902 8.88936 13.9902 8.57968ZM14.5671 6.76132C13.5624 6.76132 12.7402 7.57121 12.7402 8.57968C12.7402 9.58815 13.5624 10.398 14.5671 10.398C15.5719 10.398 16.3941 9.58815 16.3941 8.57968C16.3941 7.57121 15.5719 6.76132 14.5671 6.76132Z" fill="#374151"/>
</g>
<defs>
<clipPath id="clip0_1_32969">
<rect width="20" height="20" fill="white"/>
</clipPath>
</defs>
</svg>