<svg xmlns="http://www.w3.org/2000/svg" width="16" height="16" viewBox="0 0 16 16" fill="none">
<path d="M14.5 12.0123C14.36 12.0122 14.2216 11.9827 14.0938 11.9258C14.064 11.9126 14.0356 11.8964 14.0091 11.8776L11.4244 10.0583C11.2933 9.966 11.1863 9.84356 11.1125 9.70129C11.0386 9.55901 11 9.40107 11 9.24077V6.75952C11 6.59922 11.0386 6.44127 11.1125 6.299C11.1863 6.15673 11.2933 6.03429 11.4244 5.94202L14.0091 4.12264C14.0356 4.10385 14.064 4.08773 14.0938 4.07452C14.246 4.00683 14.4128 3.97826 14.5789 3.9914C14.745 4.00453 14.9051 4.05897 15.0449 4.14975C15.1846 4.24054 15.2994 4.36479 15.3789 4.51123C15.4584 4.65767 15.5 4.82165 15.5 4.98827V11.012C15.5 11.2772 15.3946 11.5316 15.2071 11.7191C15.0196 11.9067 14.7652 12.012 14.5 12.012V12.0123Z" fill="white"/>
<path d="M8.375 12.5H2.625C2.06159 12.4994 1.52143 12.2754 1.12304 11.877C0.724648 11.4786 0.500579 10.9384 0.5 10.375V5.625C0.500579 5.06159 0.724648 4.52143 1.12304 4.12304C1.52143 3.72465 2.06159 3.50058 2.625 3.5H8.39C8.9494 3.50066 9.48571 3.72318 9.88126 4.11874C10.2768 4.51429 10.4993 5.0506 10.5 5.61V10.375C10.4994 10.9384 10.2754 11.4786 9.87696 11.877C9.47857 12.2754 8.93841 12.4994 8.375 12.5Z" fill="white"/>
</svg>